<svg width="2000" height="2000" xmlns="http://www.w3.org/2000/svg" clip-rule="evenodd" version="1.1" xml:space="preserve">

 <g>
  <title>Layer 1</title>
  <g id="Layer_x0020_1">
   <metadata id="CorelCorpID_0Corel-Layer"/>
   <path id="svg_1" fill="#606062" d="m1085.49998,1995.99998l-150,0c-88,0 -161,-65 -172,-150c-92,0 -124,-87 -89,-145c-99,-14 -111,-154 -15,-184c-55,-348 -225,-360 -225,-651c0,-317 259,-576 576,-576c318,0 576,259 576,576c0,291 -170,304 -224,651c96,30 84,170 -15,184c35,58 3,145 -89,145c-12,85 -85,150 -173,150zm-380,-484l611,0c55,-361 224,-371 224,-646c0,-292 -238,-529 -530,-529c-291,0 -529,237 -529,529c0,275 169,285 224,646zm-100,-602c-13,0 -23,-11 -23,-24c0,-236 192,-428 428,-428c31,0 31,46 0,46c-210,0 -382,172 -382,382c0,13 -10,24 -23,24zm150,792c-63,0 -63,97 0,97l511,0c63,0 63,-97 0,-97l-511,0zm-68,-143c-63,0 -63,97 0,97l646,0c64,0 64,-97 0,-97l-646,0zm123,287c11,59 63,104 125,104l150,0c63,0 115,-45 126,-104l-401,0z" class="fil0"/>
   <path id="svg_2" fill="#FFE600" d="m705.49998,1511.99998l611,0c55,-361 224,-371 224,-646c0,-292 -238,-529 -530,-529c-291,0 -529,237 -529,529c0,275 169,285 224,646zm-77,-626c0,13 -10,24 -23,24c-13,0 -23,-11 -23,-24c0,-236 192,-428 428,-428c31,0 31,46 0,46c-210,0 -382,172 -382,382z" class="fil1"/>
   <path id="svg_3" fill="#99A4AC" d="m1333.49998,1558.99998l-646,0c-63,0 -63,97 0,97l646,0c64,0 64,-97 0,-97z" class="fil2"/>
   <path id="svg_4" fill="#99A4AC" d="m1266.49998,1701.99998l-511,0c-63,0 -63,97 0,97l511,0c63,0 63,-97 0,-97z" class="fil2"/>
   <path id="svg_5" fill="#99A4AC" d="m1211.49998,1845.99998l-401,0c11,59 63,104 125,104l150,0c63,0 115,-45 126,-104z" class="fil2"/>
  </g>
  <path id="svg_17" d="m1700.25174,928.05743c1.38122,0 2.5,-36.59471 2.5,-81.77335c0,-45.17865 -1.11878,-81.77335 -2.5,-81.77335c-1.38122,0 -2.5,36.59471 -2.5,81.77335c0,45.17865 1.11878,81.77335 2.5,81.77335z" transform="rotate(90, 1700.25, 846.284)" opacity="undefined" stroke-width="25" stroke="#FFE600" fill="#FFE600"/>
  <path id="svg_18" d="m1675.05939,1443.68795c1.38122,0 2.5,-72.47409 2.5,-161.94828c0,-89.47419 -1.11878,-161.94828 -2.5,-161.94828c-1.38122,0 -2.5,72.47409 -2.5,161.94828c0,89.47419 1.11878,161.94828 2.5,161.94828z" transform="rotate(129, 1675.06, 1281.74)" opacity="undefined" stroke-width="30" stroke="#FFE600" fill="#FFE600"/>
  <path id="svg_19" d="m1763.99979,991.80886c1.38122,0 2.5,-65.12371 2.5,-145.52335c0,-80.39964 -1.11878,-145.52335 -2.5,-145.52335c-1.38122,0 -2.5,65.12371 -2.5,145.52335c0,80.39964 1.11878,145.52335 2.5,145.52335z" transform="rotate(90, 1764, 846.286)" opacity="undefined" stroke-width="30" stroke="#FFE600" fill="#FFE600"/>
  <path id="svg_20" d="m232.75002,1013.05897c1.38122,0 2.5,-70.15824 2.5,-156.77336c0,-86.61511 -1.11878,-156.77336 -2.5,-156.77336c-1.38122,0 -2.5,70.15824 -2.5,156.77336c0,86.61511 1.11878,156.77336 2.5,156.77336z" transform="rotate(90, 232.75, 856.286)" opacity="undefined" stroke-width="30" stroke="#FFE600" fill="#FFE600"/>
  <path id="svg_21" d="m308.97253,1490.23911c1.38122,0 2.5,-79.08008 2.5,-176.7098c0,-97.62972 -1.11878,-176.7098 -2.5,-176.7098c-1.38122,0 -2.5,79.08008 -2.5,176.7098c0,97.62972 1.11878,176.7098 2.5,176.7098z" transform="rotate(-129, 308.973, 1313.53)" opacity="undefined" stroke-width="30" stroke="#FFE600" fill="#FFE600"/>
  <path id="svg_22" d="m1017.75181,225.55749c1.38122,0 2.5,-36.59471 2.5,-81.77335c0,-45.17865 -1.11878,-81.77335 -2.5,-81.77335c-1.38122,0 -2.5,36.59471 -2.5,81.77335c0,45.17865 1.11878,81.77335 2.5,81.77335z" opacity="undefined" stroke-width="30" stroke="#FFE600" fill="#FFE600"/>
  <path id="svg_23" d="m381.80465,439.61979c1.38122,0 2.5,-71.68731 2.5,-160.19016c0,-88.50285 -1.11878,-160.19016 -2.5,-160.19016c-1.38122,0 -2.5,71.68731 -2.5,160.19016c0,88.50285 1.11878,160.19016 2.5,160.19016z" transform="rotate(129, 381.805, 279.43)" opacity="undefined" stroke-width="30" stroke="#FFE600" fill="#FFE600"/>
  <path id="svg_24" d="m1656.95654,462.71159c1.38122,0 2.5,-66.3666 2.5,-148.30068c0,-81.93408 -1.11878,-148.30068 -2.5,-148.30068c-1.38122,0 -2.5,66.3666 -2.5,148.30068c0,81.93408 1.11878,148.30068 2.5,148.30068z" transform="rotate(-129, 1656.96, 314.411)" opacity="undefined" stroke-width="30" stroke="#FFE600" fill="#FFE600"/>
 </g>
</svg>