<svg width="2000" height="2000" xmlns="http://www.w3.org/2000/svg" clip-rule="evenodd" version="1.1" xml:space="preserve">

 <g>
  <title>Layer 1</title>
  <g id="Layer_x0020_1">
   <metadata id="CorelCorpID_0Corel-Layer"/>
   <path id="svg_1" fill="#606062" d="m1085.49998,1995.99998l-150,0c-88,0 -161,-65 -172,-150c-92,0 -124,-87 -89,-145c-99,-14 -111,-154 -15,-184c-55,-348 -225,-360 -225,-651c0,-317 259,-576 576,-576c318,0 576,259 576,576c0,291 -170,304 -224,651c96,30 84,170 -15,184c35,58 3,145 -89,145c-12,85 -85,150 -173,150zm-380,-484l611,0c55,-361 224,-371 224,-646c0,-292 -238,-529 -530,-529c-291,0 -529,237 -529,529c0,275 169,285 224,646zm-100,-602c-13,0 -23,-11 -23,-24c0,-236 192,-428 428,-428c31,0 31,46 0,46c-210,0 -382,172 -382,382c0,13 -10,24 -23,24zm150,792c-63,0 -63,97 0,97l511,0c63,0 63,-97 0,-97l-511,0zm-68,-143c-63,0 -63,97 0,97l646,0c64,0 64,-97 0,-97l-646,0zm123,287c11,59 63,104 125,104l150,0c63,0 115,-45 126,-104l-401,0z" class="fil0"/>
   <path id="svg_2" fill="#FFE600" d="m705.49998,1511.99998l611,0c55,-361 224,-371 224,-646c0,-292 -238,-529 -530,-529c-291,0 -529,237 -529,529c0,275 169,285 224,646zm-77,-626c0,13 -10,24 -23,24c-13,0 -23,-11 -23,-24c0,-236 192,-428 428,-428c31,0 31,46 0,46c-210,0 -382,172 -382,382z" class="fil1"/>
   <path id="svg_3" fill="#99A4AC" d="m1333.49998,1558.99998l-646,0c-63,0 -63,97 0,97l646,0c64,0 64,-97 0,-97z" class="fil2"/>
   <path id="svg_4" fill="#99A4AC" d="m1266.49998,1701.99998l-511,0c-63,0 -63,97 0,97l511,0c63,0 63,-97 0,-97z" class="fil2"/>
   <path id="svg_5" fill="#99A4AC" d="m1211.49998,1845.99998l-401,0c11,59 63,104 125,104l150,0c63,0 115,-45 126,-104z" class="fil2"/>
  </g>
 </g>
</svg>